<svg width="58" height="18" viewBox="0 0 58 18" fill="none" xmlns="http://www.w3.org/2000/svg">
<g clip-path="url(#clip0_0_4855)">
<path opacity="0.5" d="M4.3745 14.195C3.68983 14.195 3.07233 14.0758 2.522 13.8375C1.976 13.5992 1.52533 13.259 1.17 12.817C0.819 12.3707 0.595833 11.842 0.5005 11.231L2.1255 10.984C2.26417 11.5387 2.548 11.9677 2.977 12.271C3.41033 12.5743 3.90867 12.726 4.472 12.726C4.80567 12.726 5.11983 12.674 5.4145 12.57C5.70917 12.466 5.9475 12.3143 6.1295 12.115C6.31583 11.9157 6.409 11.6708 6.409 11.3805C6.409 11.2505 6.38733 11.1313 6.344 11.023C6.30067 10.9103 6.23567 10.8107 6.149 10.724C6.06667 10.6373 5.95833 10.5593 5.824 10.49C5.694 10.4163 5.54233 10.3535 5.369 10.3015L2.951 9.5865C2.743 9.52583 2.51767 9.44567 2.275 9.346C2.03667 9.242 1.80917 9.10117 1.5925 8.9235C1.38017 8.7415 1.20467 8.51183 1.066 8.2345C0.931667 7.95283 0.8645 7.60617 0.8645 7.1945C0.8645 6.59217 1.01617 6.08733 1.3195 5.68C1.62717 5.26833 2.03883 4.96067 2.5545 4.757C3.0745 4.55333 3.65083 4.45367 4.2835 4.458C4.92483 4.46233 5.49683 4.57283 5.9995 4.7895C6.50217 5.00183 6.9225 5.31167 7.2605 5.719C7.5985 6.12633 7.83683 6.61817 7.9755 7.1945L6.292 7.487C6.22267 7.15767 6.08833 6.87817 5.889 6.6485C5.694 6.4145 5.4535 6.23683 5.1675 6.1155C4.88583 5.99417 4.58467 5.92917 4.264 5.9205C3.952 5.91617 3.66167 5.96383 3.393 6.0635C3.12867 6.15883 2.91417 6.2975 2.7495 6.4795C2.58917 6.6615 2.509 6.87383 2.509 7.1165C2.509 7.34617 2.57833 7.53467 2.717 7.682C2.85567 7.825 3.02683 7.93983 3.2305 8.0265C3.4385 8.10883 3.64867 8.17817 3.861 8.2345L5.538 8.7025C5.76767 8.76317 6.0255 8.8455 6.3115 8.9495C6.5975 9.0535 6.87267 9.19867 7.137 9.385C7.40133 9.57133 7.618 9.81617 7.787 10.1195C7.96033 10.4228 8.047 10.8085 8.047 11.2765C8.047 11.7618 7.94517 12.1887 7.7415 12.557C7.54217 12.921 7.27133 13.2243 6.929 13.467C6.58667 13.7097 6.1945 13.8917 5.7525 14.013C5.31483 14.1343 4.8555 14.195 4.3745 14.195ZM10.4539 14V4.64H12.0204V8.579H16.4534V4.64H18.0134V14H16.4534V10.048H12.0204V14H10.4539ZM24.7943 14.195C23.8583 14.195 23.0566 13.9913 22.3893 13.584C21.7219 13.1723 21.2084 12.6003 20.8488 11.868C20.4934 11.1357 20.3158 10.2863 20.3158 9.32C20.3158 8.35367 20.4934 7.50433 20.8488 6.772C21.2084 6.03967 21.7219 5.46983 22.3893 5.0625C23.0566 4.65083 23.8583 4.445 24.7943 4.445C25.7303 4.445 26.5319 4.65083 27.1993 5.0625C27.8709 5.46983 28.3844 6.03967 28.7398 6.772C29.0994 7.50433 29.2793 8.35367 29.2793 9.32C29.2793 10.2863 29.0994 11.1357 28.7398 11.868C28.3844 12.6003 27.8709 13.1723 27.1993 13.584C26.5319 13.9913 25.7303 14.195 24.7943 14.195ZM24.7943 12.7195C25.4226 12.7238 25.9448 12.5852 26.3608 12.3035C26.7811 12.0218 27.0953 11.6253 27.3033 11.114C27.5156 10.6027 27.6218 10.0047 27.6218 9.32C27.6218 8.63533 27.5156 8.04167 27.3033 7.539C27.0953 7.032 26.7811 6.63767 26.3608 6.356C25.9448 6.07433 25.4226 5.92917 24.7943 5.9205C24.1659 5.91617 23.6438 6.05483 23.2278 6.3365C22.8118 6.61817 22.4976 7.01467 22.2853 7.526C22.0773 8.03733 21.9733 8.63533 21.9733 9.32C21.9733 10.0047 22.0773 10.6005 22.2853 11.1075C22.4933 11.6102 22.8053 12.0023 23.2213 12.284C23.6416 12.5657 24.1659 12.7108 24.7943 12.7195ZM31.5731 14V4.64H35.4406C35.5316 4.64 35.6486 4.64433 35.7916 4.653C35.9346 4.65733 36.0668 4.67033 36.1881 4.692C36.7298 4.77433 37.1761 4.95417 37.5271 5.2315C37.8824 5.50883 38.1446 5.85983 38.3136 6.2845C38.4869 6.70483 38.5736 7.17283 38.5736 7.6885C38.5736 8.19983 38.4869 8.66783 38.3136 9.0925C38.1403 9.51283 37.8759 9.86167 37.5206 10.139C37.1696 10.4163 36.7254 10.5962 36.1881 10.6785C36.0668 10.6958 35.9324 10.7088 35.7851 10.7175C35.6421 10.7262 35.5273 10.7305 35.4406 10.7305H33.1396V14H31.5731ZM33.1396 9.268H35.3756C35.4623 9.268 35.5598 9.26367 35.6681 9.255C35.7764 9.24633 35.8761 9.229 35.9671 9.203C36.2271 9.138 36.4308 9.02317 36.5781 8.8585C36.7298 8.69383 36.8359 8.5075 36.8966 8.2995C36.9616 8.0915 36.9941 7.88783 36.9941 7.6885C36.9941 7.48917 36.9616 7.2855 36.8966 7.0775C36.8359 6.86517 36.7298 6.67667 36.5781 6.512C36.4308 6.34733 36.2271 6.2325 35.9671 6.1675C35.8761 6.1415 35.7764 6.12633 35.6681 6.122C35.5598 6.11333 35.4623 6.109 35.3756 6.109H33.1396V9.268Z" fill="black"/>
<path d="M52.3218 4L57.3218 9L52.3218 14" stroke="#D87D4A" stroke-width="2"/>
</g>
<defs>
<clipPath id="clip0_0_4855">
<rect width="57.3219" height="18" fill="white"/>
</clipPath>
</defs>
</svg>
